<svg height="1024" viewBox="0 0 1024 1024" width="1024" xmlns="http://www.w3.org/2000/svg"><path d="m1006.7228 669.92291c-.3958 127.48706-102.67462 228.36403-212.19589 278.3044-183.89687 70.15329-402.5272 68.85389-577.04216-6.72645-103.04365-51.92512-198.243546-149.68586-197.704808-271.92862-.196332-127.43094 103.610178-228.47504 212.679028-278.50858 196.81504-89.72836 440.86098-81.31963 624.79749 35.68898 81.72048 53.81468 149.92294 141.36933 149.46634 243.17027z" fill="#3b3b94" stroke="#705e6d" stroke-width="30.116"/><path d="m398.82982 918.92848c-47.60534-34.66357-101.7716-62.63238-136.1969-112.05456-49.00319-51.60546-87.30039-111.90804-120.34402-174.55158-20.07736-71.91217-23.30524-147.83323-23.08505-222.31311 18.34587-41.12503 28.98354-97.35677 75.89724-114.64541 59.98186-11.99686 117.00775-43.41294 179.80107-36.22045 64.18926 1.36346 129.45079-3.92046 192.95893 3.1997 77.85973 20.75444 142.35471 70.99435 208.18938 115.12536 41.77136 39.21868 110.08402 61.15193 115.02179 125.9279 15.8119 54.62293 27.44421 114.81866 43.25612 169.4416" fill="#b76526" stroke="#71472b" stroke-width="10.0354"/><path d="m289.1654 453.50468c32.37008-43.09075 75.61624-72.89225 130.00701-78.44497 81.85356-5.83474 164.06242-1.04099 245.47599 9.0863 19.83765 2.02885 39.67529 4.05769 59.51294 6.08654-1.43427 57.41964-72.00867 21.05141-108.05327 29.70193-72.2226-.47537-145.32528-7.36313-216.06239 10.72433-34.9473 2.04776-54.99456 33.43775-81.22146 52.50469-9.88627-9.88627-19.77255-19.77255-29.65882-29.65882z" fill="#7b411d"/><path d="m186.34818 396.16432c12.4797-47.87727 60.32058-61.22209 102.67209-72.65468 52.88971-11.35885 106.35945-26.55181 160.8941-17.23853 55.79503 4.04433 116.93302-12.57719 166.10082 21.52532 12.18519 50.10461-74.69323 13.7358-104.25259 19.09866-80.49034-12.96184-163.6847-8.37538-240.47275 20.45825-28.36207 9.46155-56.34352 20.05941-84.94167 28.81098z" fill="#7b411d"/><g stroke="#000"><path d="m245.90177 362.88098c0-117.27586 0-234.55172 0-351.827586h332.73615v349.100236c-110.91205.90912-221.8241 1.81823-332.73615 2.72735z" fill="#fff" stroke-width="8.51563"/><path d="m318.17642 289.24263c0-62.25357 0-124.50714 0-186.76071h186.76072v191.15509c-62.25357-1.46479-124.50715-2.92959-186.76072-4.39438z" fill="none" stroke-width="9.46253"/><path d="m303.94262 183.97458c36.45282 26.38167 87.39582 75.95402 111.98777 91.56079 33.34686-75.56255 66.69372-151.12511 100.04058-226.687673" fill="none" stroke-width="45.0256"/></g><path d="m398.82982 918.92848c-19.34514-62.58228-63.55126-120.39181-61.34589-187.39237 4.49031-62.54622-14.68957-131.11194 20.50761-187.19027 14.67064-51.59424 42.87559-85.38369 99.54488-85.55666 76.25619-20.73949 156.02653-11.58455 234.09412-15.26761 46.73248-.58928 102.35809-1.22042 137.6174 32.68724 29.788 34.98959 66.40447 54.1928 78.26579 100.37545 21.79414 44.35512 38.51953 103.10143 17.27214 150.96037-14.62227 53.83923-51.97694 97.7007-76.50127 147.24501-46.76821 35.48709-126.04157 21.51827-185.80419 35.40915-74.62717 5.60209-148.98739 23.10217-223.83104 11.79273-13.27318-1.02102-26.54637-2.04203-39.81955-3.06304z" fill="#f7e4d6" stroke="#71472b" stroke-width="10.0354"/><path d="m544.23121 350.68747c-76.74606-11.24404-155.93381-17.93895-231.59588 3.83072-29.64366.31486-56.97009 24.05217-8.88837 25.94576 95.39997-4.44455 191.1575-7.02917 286.54474-13.81152 40.21034-12.2053 19.29304-17.97215-10.44824-15.05183-11.87075-.30438-23.7415-.60876-35.61225-.91313z" fill="#b76526"/></svg>